<svg version="1.1" width="120" height="120" x="0px" y="0px" viewBox="0 0 653 693.1" style="enable-background:new 0 0 653 693.1; overflow: visible;" xml:space="preserve">
<path class="path" id="han_d_header" fill="#f01716" d="M646,658.3c-0.8,0-1.6,0-2.3-0.1h-0.4c-0.5,0-0.9,0-1.3-0.1l-183.3-19.2l27.6-202.3c0-0.2,0-0.8,0-0.8
c0-14.7-12.1-26.6-26.8-26.6c-11.5,0-21.3,7.4-25,17.6l0,0l-31.1,87.8c-2.4-13.1-13-25.2-26.7-25.2c-14.2,0-26,10.7-27.8,24.4
c-1.8-13.7-13.6-24.4-27.8-24.4c-13.7,0-25.2,10-27.6,23c0,0-52.5-129.3-52.9-130.2c0-0.1-0.1-0.2-0.1-0.2
c-4.4-8.7-13.3-14.6-23.7-14.6c-14.7,0-26.6,11.9-26.6,26.6c0,1.7,0.2,3.4,0.5,5.1c0,0.1,0,0.2,0,0.3l0.3,1.2
c0.2,0.5,0.3,1.1,0.5,1.6l46,155.4c-3.8-1-8.1,0.9-12-0.5c-19.5-7.1-37.9,11.3-22.7,32.5l34.7,49.4L53.9,658.1c-0.5,0-0.9,0-1.3,0.1
h-0.4c-0.7,0.2-1.5,0.2-2.3,0.1C33.3,657.8,21,641.1,21,620.6V86.3c0-27.4,27.1-42.7,46.8-32.1L348,182.3L628.1,54.2
c19.7-10.6,45.9,4.6,45.9,32v534.5C674,641.2,662.6,657.8,646,658.3z"></path>
</svg>